<?xml version="1.0" standalone="no"?>
<!DOCTYPE svg PUBLIC "-//W3C//DTD SVG 20010904//EN"
 "http://www.w3.org/TR/2001/REC-SVG-20010904/DTD/svg10.dtd">
<svg version="1.0" xmlns="http://www.w3.org/2000/svg"
 width="512.000000pt" height="512.000000pt" viewBox="0 0 512.000000 512.000000"
 preserveAspectRatio="xMidYMid meet">
<metadata>
Created by potrace 1.14, written by Peter Selinger 2001-2017
</metadata>
<g transform="translate(0.000000,512.000000) scale(0.100000,-0.100000)"
fill="#000000" stroke="none">
<path d="M4010 4762 c0 -9 -10 -12 -29 -9 -25 4 -29 2 -26 -14 2 -10 -1 -22
-7 -25 -6 -4 -8 -3 -5 2 3 6 2 16 -3 24 -7 11 -11 11 -23 1 -13 -10 -17 -9
-25 5 -6 11 -11 13 -16 5 -4 -6 -2 -11 5 -11 8 0 9 -3 0 -13 -6 -8 -8 -17 -4
-21 4 -4 0 -4 -10 0 -9 3 -17 10 -17 16 0 5 4 6 10 3 6 -4 7 1 3 11 -4 12 -8
14 -11 6 -3 -10 -7 -10 -18 -1 -11 9 -15 8 -20 -4 -3 -9 -2 -21 2 -28 5 -8 3
-9 -6 -4 -10 6 -12 4 -7 -9 4 -10 3 -15 -4 -11 -5 4 -7 16 -4 28 4 12 3 18 -2
12 -13 -16 -35 -17 -44 -3 -5 8 -8 6 -6 -9 1 -18 4 -20 22 -11 11 6 17 7 13 3
-4 -5 -2 -15 5 -24 11 -14 10 -14 -5 -2 -14 10 -21 11 -31 2 -17 -13 -27 -5
-20 17 4 13 3 14 -5 3 -8 -11 -11 -11 -16 0 -3 8 -3 4 0 -8 3 -13 1 -23 -5
-23 -10 0 -15 14 -12 33 1 4 -9 1 -21 -7 -13 -7 -31 -12 -40 -11 -10 2 -15 -2
-12 -9 3 -7 -3 -19 -13 -27 -16 -13 -17 -12 -4 4 8 10 9 17 3 17 -6 0 -14 -5
-17 -10 -4 -6 -21 -9 -39 -6 -19 3 -40 0 -51 -8 -15 -11 -16 -13 -1 -13 9 0
16 4 16 9 0 4 5 8 11 8 8 0 8 -5 -1 -15 -7 -8 -16 -12 -21 -9 -5 3 -14 -5 -19
-18 l-11 -23 5 23 c4 19 0 22 -24 20 -16 -1 -26 -6 -24 -10 3 -5 10 -6 15 -3
5 4 9 2 9 -3 0 -6 -7 -13 -16 -16 -10 -4 -13 -2 -8 6 5 8 2 9 -10 5 -10 -4
-15 -3 -11 3 3 6 1 10 -4 10 -6 0 -11 -9 -11 -20 0 -11 -5 -20 -11 -20 -5 0
-8 4 -5 9 3 5 -3 11 -14 14 -16 4 -18 2 -10 -13 5 -10 15 -21 22 -23 9 -4 9
-6 1 -6 -6 -1 -18 5 -25 13 -10 10 -20 11 -31 4 -10 -5 -22 -6 -29 -2 -7 4 -8
3 -4 -4 4 -7 2 -12 -3 -12 -6 0 -11 -5 -11 -11 0 -5 10 -3 22 5 12 9 27 16 33
16 5 -1 -3 -8 -18 -16 -16 -9 -25 -20 -21 -27 5 -9 4 -9 -5 -1 -19 18 -55 5
-73 -27 -10 -16 -23 -29 -29 -29 -7 0 -5 6 5 13 18 13 33 72 16 62 -5 -3 -6
-13 -3 -22 5 -12 3 -14 -7 -8 -8 5 -11 4 -7 -2 3 -5 -3 -17 -14 -26 -21 -19
-33 -22 -24 -7 3 6 1 10 -4 10 -14 0 -14 -33 0 -47 8 -8 8 -13 0 -18 -6 -3
-10 -1 -9 6 2 6 -3 14 -9 16 -11 4 -18 -16 -14 -40 1 -5 -3 -6 -9 -2 -6 4 -8
15 -5 26 4 11 2 19 -5 19 -6 0 -8 -4 -5 -10 6 -9 -8 -14 -27 -11 -5 0 -8 -4
-8 -10 0 -6 6 -9 14 -6 8 3 17 -1 20 -9 4 -11 -1 -13 -19 -10 -17 3 -22 1 -18
-10 3 -8 8 -12 12 -9 4 2 8 -2 8 -8 0 -17 -39 -20 -50 -4 -5 8 -7 5 -5 -8 2
-11 -2 -19 -9 -18 -8 2 -10 -4 -6 -15 6 -15 5 -16 -13 -2 -15 11 -16 11 -6 0
6 -8 12 -22 12 -32 0 -10 5 -18 12 -18 6 0 8 -3 5 -6 -4 -4 -12 -2 -20 4 -8 7
-18 7 -27 2 -8 -6 -10 -10 -5 -10 6 0 11 -9 11 -20 0 -19 -8 -24 -33 -21 -17
2 -25 -16 -12 -25 8 -4 9 -3 5 4 -4 7 -3 12 2 12 19 0 21 -14 5 -32 -18 -20
-26 -81 -10 -75 6 2 11 11 13 20 1 9 -2 15 -7 11 -14 -8 -11 9 7 34 8 12 21
22 27 22 7 0 4 -5 -5 -11 -10 -5 -18 -17 -18 -25 0 -8 4 -13 9 -9 5 3 13 1 16
-5 4 -6 1 -9 -6 -8 -7 2 -14 -3 -15 -9 -1 -7 -3 -16 -4 -20 -1 -5 -2 -11 -1
-16 1 -4 -11 -12 -25 -17 -25 -10 -26 -12 -10 -29 21 -23 21 -37 -1 -20 -15
12 -16 12 -7 -1 5 -8 9 -24 9 -34 0 -11 6 -20 13 -22 7 -1 8 0 2 3 -5 2 -10 9
-10 15 0 6 6 6 15 -2 22 -18 19 -30 -7 -30 -21 -1 -21 -2 -5 -11 9 -5 21 -8
25 -5 5 3 9 -1 9 -9 0 -10 -6 -11 -24 -4 -32 12 -29 3 5 -15 20 -12 22 -15 7
-13 -11 1 -27 7 -35 12 -13 7 -13 6 -2 -7 10 -13 10 -17 0 -22 -7 -3 3 -3 22
-1 19 2 29 2 22 -1 -6 -3 -10 -9 -7 -14 3 -4 -5 -6 -17 -3 -18 4 -16 1 7 -12
36 -19 61 -43 28 -26 -30 15 -54 13 -26 -2 15 -8 19 -17 14 -26 -7 -11 -11
-10 -20 5 -6 11 -11 14 -11 8 0 -6 7 -17 15 -24 9 -7 14 -19 11 -27 -3 -8 -1
-11 4 -8 9 6 14 -8 11 -27 0 -5 4 -8 9 -8 13 0 13 6 -5 39 -12 23 -12 31 -2
39 10 8 13 5 14 -16 3 -52 10 -77 21 -75 6 2 9 -8 6 -21 -3 -17 1 -26 13 -29
15 -4 15 -5 2 -6 -9 0 -22 6 -29 14 -10 12 -10 15 0 15 10 0 10 3 0 15 -7 8
-18 15 -24 15 -6 0 -4 -5 4 -10 12 -8 13 -12 2 -19 -11 -7 -10 -9 3 -15 9 -3
13 -11 9 -17 -4 -7 -3 -9 4 -5 12 7 42 -19 42 -37 0 -6 -7 -2 -16 9 -8 10 -13
13 -9 6 4 -7 1 -19 -5 -27 -10 -12 -8 -13 10 -10 12 2 29 10 39 17 14 11 14
11 3 -4 -7 -9 -9 -18 -5 -20 4 -3 2 -3 -5 -1 -7 1 -11 -1 -7 -6 3 -5 -1 -12
-7 -15 -7 -3 -3 -3 10 0 13 3 22 1 22 -6 0 -6 5 -8 12 -4 7 4 8 3 4 -4 -4 -6
-14 -9 -24 -6 -14 5 -15 4 -2 -5 13 -9 13 -11 1 -11 -11 0 -9 -4 5 -14 14 -11
22 -11 32 -3 7 5 12 6 11 1 -4 -21 2 -41 17 -60 15 -19 15 -18 5 2 -8 16 -7
21 4 21 8 0 12 -4 9 -8 -6 -11 17 -59 26 -54 4 3 13 -1 19 -9 9 -11 8 -18 -4
-30 -19 -19 -16 -20 21 -5 28 10 28 10 10 -10 -10 -11 -23 -18 -29 -14 -6 3
-7 1 -3 -5 5 -9 13 -8 30 3 20 13 23 13 23 1 0 -8 -3 -14 -6 -13 -6 2 -11 -7
-11 -18 0 -3 9 -1 20 5 11 6 17 16 14 22 -5 7 -2 8 5 4 9 -6 8 -12 -4 -26 -15
-16 -15 -19 0 -34 23 -23 32 -20 10 4 -10 11 -13 20 -8 20 6 0 14 -7 17 -16 5
-14 9 -14 23 -3 15 13 15 12 0 -11 -12 -18 -13 -29 -6 -40 9 -13 10 -12 5 2
-3 10 -2 19 2 22 4 2 9 -7 10 -22 3 -36 16 -46 36 -27 19 19 22 3 3 -17 -14
-15 -16 -33 -4 -45 5 -4 8 -3 7 2 -5 25 2 35 26 33 l26 -2 -23 -19 c-21 -17
-22 -19 -4 -15 11 1 23 7 26 11 3 5 9 1 12 -8 4 -9 3 -13 -3 -10 -6 3 -10 1
-10 -6 0 -6 8 -9 19 -6 14 3 18 1 14 -9 -3 -8 -9 -11 -14 -8 -5 3 -6 -2 -2
-11 3 -9 9 -13 12 -8 8 13 44 25 36 14 -3 -5 0 -13 6 -16 5 -4 8 -13 5 -20 -3
-8 2 -19 10 -25 8 -7 14 -20 15 -29 0 -11 2 -12 6 -3 3 7 0 19 -7 27 -9 11 -8
14 8 12 11 0 18 -6 15 -13 -2 -7 0 -15 6 -19 6 -3 14 1 17 9 3 9 11 16 17 16
7 0 7 -4 -1 -12 -17 -17 -15 -28 4 -28 13 0 14 -3 5 -14 -9 -11 -6 -17 14 -30
14 -9 23 -21 20 -26 -3 -6 1 -7 9 -4 9 3 16 1 16 -5 0 -6 -4 -11 -9 -11 -5 0
-11 -9 -14 -21 -3 -12 -10 -18 -16 -15 -6 4 -8 -6 -6 -24 4 -33 2 -35 -25 -20
-13 7 -21 7 -26 -2 -4 -6 -3 -8 4 -4 6 3 13 2 16 -3 3 -5 -3 -11 -14 -14 -11
-3 -23 -13 -26 -24 -3 -10 -12 -30 -20 -44 -7 -14 -10 -30 -6 -34 4 -5 1 -5
-5 -1 -8 4 -13 2 -13 -5 0 -7 -3 -10 -6 -6 -3 3 4 20 16 37 12 17 19 34 16 37
-3 4 -6 1 -6 -6 0 -7 -5 -9 -12 -5 -6 4 -8 3 -5 -3 7 -11 -27 -66 -35 -58 -3
3 -4 -6 -3 -20 3 -21 1 -23 -16 -15 -15 8 -17 7 -13 -5 4 -8 11 -15 18 -15 6
0 3 -5 -7 -11 -9 -6 -14 -15 -11 -21 4 -7 2 -8 -5 -4 -6 4 -14 0 -17 -9 -6
-14 -8 -14 -18 -1 -10 13 -13 13 -26 -2 -13 -14 -12 -15 2 -10 9 4 19 1 21 -6
4 -10 -1 -12 -16 -9 -18 4 -19 3 -7 -6 13 -9 13 -12 1 -23 -10 -10 -12 -10 -7
0 5 7 1 12 -9 12 -10 0 -13 -5 -9 -12 5 -8 2 -9 -10 -5 -9 4 -15 3 -11 -2 3
-5 -1 -12 -7 -15 -7 -3 -1 -4 15 -1 15 3 27 1 27 -5 0 -5 -6 -9 -12 -8 -7 2
-12 -3 -10 -11 3 -12 0 -12 -13 -1 -16 13 -30 7 -30 -12 0 -6 -6 -13 -14 -16
-9 -3 -11 0 -6 8 6 9 4 11 -4 6 -7 -5 -10 -10 -7 -13 9 -9 -14 -44 -24 -38 -6
4 -7 -2 -3 -12 6 -16 5 -16 -11 -4 -9 8 -16 10 -15 5 1 -5 0 -11 -1 -14 -7
-20 -7 -41 2 -47 7 -4 8 -1 3 7 -5 9 -4 11 4 6 6 -4 9 -12 5 -17 -3 -5 -10 -7
-15 -3 -6 3 -10 0 -8 -7 4 -35 -1 -43 -17 -23 -8 10 -12 13 -8 5 5 -11 3 -13
-9 -8 -9 3 -19 1 -23 -5 -5 -7 -2 -8 6 -3 8 5 11 3 8 -6 -3 -8 -1 -22 3 -31 6
-10 5 -19 -1 -23 -6 -4 -10 -3 -9 2 3 20 -2 27 -11 13 -9 -13 -11 -13 -20 0
-7 11 -8 6 -4 -18 6 -28 4 -31 -11 -25 -13 4 -16 3 -11 -5 6 -11 -5 -17 -26
-13 -5 0 -8 -4 -8 -10 0 -6 7 -8 15 -5 8 3 22 9 30 12 8 3 15 1 15 -5 0 -6 -6
-10 -12 -9 -7 2 -12 -2 -11 -8 1 -7 -6 -10 -17 -7 -12 3 -20 0 -20 -6 0 -7 -4
-10 -9 -7 -14 9 -23 -26 -11 -38 8 -8 10 -7 5 4 -3 9 3 20 16 28 12 8 18 9 15
4 -3 -6 -3 -12 1 -15 5 -2 3 -3 -4 -1 -18 4 -24 -8 -10 -24 6 -9 7 -13 1 -9
-15 9 -56 -22 -48 -35 5 -7 2 -8 -5 -4 -9 6 -9 12 3 25 11 12 12 21 5 31 -9
13 -10 13 -6 0 2 -8 -2 -21 -10 -28 -7 -8 -11 -18 -7 -23 3 -6 0 -16 -6 -24
-6 -8 -8 -20 -4 -26 4 -7 3 -9 -3 -6 -6 4 -14 0 -17 -9 -3 -8 -14 -14 -23 -12
-12 2 -18 -3 -17 -14 2 -21 -12 -24 -20 -5 -3 6 -3 -1 -1 -16 3 -24 2 -27 -11
-16 -12 10 -13 9 -7 -7 6 -16 4 -17 -8 -7 -13 10 -16 10 -16 -2 0 -8 4 -12 8
-9 4 2 10 0 14 -6 4 -6 -5 -10 -22 -10 -24 -1 -26 -2 -10 -11 19 -11 14 -29
-9 -29 -8 0 -13 4 -10 9 3 5 -2 15 -12 22 -14 11 -15 11 -5 0 9 -11 7 -17 -9
-31 -17 -13 -18 -17 -5 -17 9 0 14 4 11 9 -3 4 0 8 5 8 6 0 11 -5 11 -11 0 -5
6 -7 13 -3 7 4 9 3 4 -2 -5 -5 -13 -10 -18 -10 -5 -1 -13 -2 -19 -3 -5 0 -10
-6 -10 -12 0 -5 4 -8 8 -5 5 3 9 -1 9 -9 0 -12 -4 -12 -20 2 -13 11 -17 12
-12 4 6 -11 4 -13 -9 -8 -10 4 -15 3 -11 -3 3 -6 -1 -13 -9 -16 -9 -3 -13 -11
-10 -16 4 -6 10 -5 14 3 5 7 16 14 24 15 9 1 14 -2 10 -7 -3 -5 -10 -6 -16 -3
-8 5 -9 1 -5 -10 4 -9 3 -15 -2 -11 -5 3 -12 -1 -14 -7 -4 -10 -6 -10 -6 0 -1
6 -9 12 -18 11 -11 0 -13 -3 -5 -6 6 -2 12 -9 12 -15 0 -6 -7 -7 -16 -4 -16 6
-51 -20 -41 -31 4 -3 1 -15 -5 -27 -7 -11 -12 -24 -11 -27 1 -3 -4 -6 -12 -6
-11 0 -10 5 2 24 9 13 13 26 10 29 -3 3 -8 -4 -12 -15 -3 -12 -10 -19 -15 -16
-4 3 -7 -6 -6 -19 2 -14 -1 -30 -6 -38 -8 -10 -9 -9 -5 3 4 12 -1 16 -22 15
-15 -1 -28 -6 -28 -13 0 -7 3 -10 7 -8 3 2 12 -1 20 -6 12 -8 11 -9 -5 -7 -12
2 -19 -2 -17 -10 1 -8 -2 -11 -7 -8 -5 4 -12 2 -16 -4 -3 -5 -15 -10 -26 -10
-11 0 -18 4 -14 9 3 5 0 13 -7 17 -7 4 -10 4 -6 -1 4 -4 3 -16 -3 -26 -8 -15
-6 -17 8 -12 15 6 16 5 3 -9 -12 -13 -16 -14 -23 -2 -12 21 -77 -13 -77 -40 0
-6 9 0 20 14 10 14 22 21 27 17 4 -5 0 -13 -10 -18 -9 -6 -15 -14 -13 -18 3
-4 -6 -7 -20 -7 -16 0 -23 4 -20 13 3 7 2 13 -3 13 -5 0 -12 -12 -16 -27 -5
-20 -9 -23 -15 -13 -5 7 -16 15 -24 16 -9 1 -14 -2 -10 -7 3 -5 9 -7 14 -4 4
3 7 -3 6 -12 -3 -20 -31 -25 -31 -6 0 21 -12 24 -26 6 -12 -14 -12 -16 0 -8
10 5 12 4 7 -3 -4 -7 -16 -12 -27 -12 -10 0 -18 -3 -18 -7 5 -29 -2 -36 -16
-17 -8 11 -15 14 -15 7 0 -7 -5 -13 -11 -13 -16 0 -36 -23 -32 -37 2 -6 0 -14
-5 -17 -10 -6 -9 24 1 41 4 6 2 15 -4 19 -7 4 -9 3 -6 -3 8 -12 -60 -56 -73
-48 -5 3 -7 -6 -4 -20 4 -23 3 -24 -10 -13 -7 7 -12 16 -10 19 2 3 -3 6 -11 6
-11 0 -12 -4 -4 -13 7 -8 7 -14 -1 -19 -6 -4 -9 -14 -6 -22 3 -8 2 -12 -3 -8
-5 3 -11 -1 -14 -7 -3 -7 -4 -3 -4 10 1 12 5 22 9 22 4 0 8 4 8 8 0 5 -6 9
-14 9 -8 0 -14 -5 -13 -11 1 -6 -7 -10 -18 -8 -16 2 -17 1 -5 -7 17 -12 22
-51 6 -48 -6 1 -10 -3 -9 -10 2 -8 -4 -10 -15 -6 -15 6 -16 5 -2 -12 14 -17
14 -17 -7 -5 -12 8 -19 19 -15 25 3 5 -2 4 -11 -4 -14 -11 -15 -16 -5 -29 11
-14 10 -15 -7 -8 -15 5 -17 4 -8 -5 13 -13 36 -3 27 13 -4 7 -2 8 4 4 18 -11
14 -24 -8 -31 -11 -4 -18 -11 -15 -16 3 -5 -1 -6 -9 -3 -9 3 -13 10 -10 15 9
15 -3 10 -17 -8 -10 -12 -10 -14 -1 -9 7 4 14 1 18 -8 3 -9 12 -12 22 -8 15 5
15 4 -1 -12 -17 -18 -17 -19 0 -40 10 -11 14 -18 9 -14 -5 4 -15 3 -21 -2 -10
-8 -12 -3 -10 20 1 16 -2 30 -7 30 -5 0 -7 4 -4 9 7 11 -21 8 -31 -4 -4 -4 -3
-5 4 -1 19 11 36 -29 18 -44 -8 -7 -15 -18 -14 -24 0 -7 2 -6 6 2 2 6 9 9 14
6 6 -3 5 -11 -2 -20 -6 -8 -8 -14 -4 -14 4 0 1 -7 -6 -16 -9 -11 -1 -9 26 6
24 14 34 16 27 7 -8 -10 -9 -17 -3 -21 6 -4 8 -13 4 -21 -4 -11 0 -14 13 -9
16 5 16 4 4 -5 -12 -9 -13 -11 -1 -11 8 0 11 -3 8 -6 -4 -4 -13 -2 -20 5 -11
9 -19 7 -34 -6 -10 -10 -13 -14 -6 -10 16 11 35 -1 27 -16 -5 -8 -3 -8 7 1 19
18 39 15 59 -10 15 -19 20 -21 34 -8 10 7 16 9 15 4 -4 -21 2 -35 11 -29 6 3
10 1 10 -5 0 -6 5 -8 12 -4 6 4 8 3 4 -4 -3 -6 -2 -13 3 -17 6 -3 8 -12 5 -19
-3 -8 -1 -17 5 -21 7 -4 8 1 4 12 -6 16 -5 17 12 3 18 -14 18 -14 -1 15 -18
29 -18 30 0 15 21 -16 23 -16 49 7 10 10 17 12 17 5 0 -7 -5 -12 -11 -12 -5 0
-7 -5 -4 -10 5 -8 11 -8 19 -1 7 6 16 8 19 4 4 -3 7 -1 7 5 0 6 7 9 17 5 12
-5 14 -3 8 7 -5 8 -4 11 3 6 6 -3 13 -2 17 3 6 11 35 3 35 -9 0 -5 -9 -7 -20
-5 -11 2 -22 -1 -26 -6 -3 -6 2 -9 12 -8 11 2 24 0 30 -4 7 -4 18 1 25 10 10
12 10 14 2 9 -7 -4 -13 -2 -13 3 0 6 14 12 30 12 50 2 55 4 56 14 0 6 4 18 9
28 7 16 9 16 28 -5 11 -13 18 -16 15 -8 -18 46 -20 55 -10 41 5 -7 15 -11 21
-7 7 5 9 1 5 -11 -4 -13 -3 -15 4 -5 5 8 13 14 18 13 5 0 9 9 8 19 0 15 2 17
13 9 7 -6 11 -15 8 -18 -2 -4 2 -8 10 -8 11 0 12 4 4 14 -9 9 -8 17 1 28 13
16 35 10 24 -6 -3 -5 -10 -6 -16 -3 -7 4 -8 2 -4 -5 4 -6 11 -9 16 -6 4 3 10
-1 13 -7 3 -7 4 3 3 22 -1 25 3 35 14 35 8 1 14 7 12 15 -2 8 0 11 4 7 16 -16
12 -35 -7 -32 -11 2 -17 0 -14 -6 4 -5 10 -7 15 -4 4 3 11 -1 13 -7 4 -10 6
-10 6 0 1 6 6 12 12 12 5 0 7 -5 3 -12 -4 -7 -3 -8 5 -4 6 4 9 11 6 16 -3 5
-1 11 5 15 5 3 10 0 10 -7 0 -8 5 -6 11 5 6 9 14 15 20 12 5 -3 17 -1 26 5 16
10 16 10 -3 5 -14 -3 -26 1 -35 12 -8 12 -9 14 -1 7 7 -6 24 -9 38 -6 21 4 23
7 12 20 -10 12 -10 14 -1 8 26 -15 53 -15 53 1 0 12 -3 13 -14 4 -11 -9 -16
-9 -22 0 -4 7 -3 9 4 5 6 -3 14 -1 17 4 5 8 14 5 28 -7 l20 -18 -19 30 -18 30
20 -18 c20 -17 22 -16 47 4 15 11 27 28 27 36 0 9 3 14 6 10 4 -3 15 4 26 16
11 12 16 15 12 7 -12 -22 -14 -41 -3 -34 5 3 6 10 3 16 -5 7 -1 9 9 5 9 -3 19
-1 23 5 4 7 3 8 -4 4 -8 -4 -12 0 -12 11 0 18 37 49 53 45 6 -2 11 12 9 29 -1
3 6 6 13 6 9 0 11 -5 6 -11 -11 -15 -22 -46 -15 -46 2 0 9 12 14 26 6 14 15
22 21 18 8 -5 8 -1 0 14 -8 16 -6 23 11 38 12 11 18 13 14 7 -4 -7 -2 -13 4
-13 6 0 8 -5 4 -12 -4 -7 -3 -8 5 -4 6 4 8 12 5 18 -5 8 -1 9 10 5 9 -4 15 -3
11 2 -3 5 1 12 7 15 7 3 4 4 -8 1 -13 -4 -26 1 -35 12 -11 15 -11 16 1 6 19
-18 30 -16 30 5 0 11 3 13 8 5 4 -6 19 -10 34 -10 14 1 24 6 21 10 -2 4 -13 5
-24 2 -11 -4 -19 -2 -19 4 0 6 7 12 15 12 29 3 33 4 42 13 4 5 3 6 -3 3 -12
-7 -29 21 -19 31 3 3 5 0 5 -6 0 -7 5 -12 11 -12 5 0 8 4 5 9 -3 5 1 12 10 15
10 4 13 2 9 -7 -4 -6 1 -3 9 7 19 23 22 46 4 28 -15 -15 -28 -15 -28 -1 0 5 4
8 9 4 5 -3 13 -1 16 5 5 8 12 7 23 -2 10 -8 13 -9 9 -1 -9 15 20 44 37 37 22
-9 28 13 11 40 -15 23 -15 24 3 20 10 -3 24 2 32 10 10 13 16 14 29 4 14 -11
14 -11 4 3 -10 12 -10 18 0 29 8 8 8 11 1 7 -17 -10 -25 20 -9 33 10 8 15 8
21 -1 5 -8 3 -9 -7 -4 -12 8 -12 6 0 -8 7 -9 15 -17 17 -17 4 0 -4 38 -10 49
-3 5 8 18 25 29 34 21 37 30 17 44 -10 8 -9 9 4 4 20 -6 35 10 16 17 -7 2 -1
4 14 3 14 0 24 -4 22 -8 -2 -4 -1 -9 4 -12 4 -2 9 4 9 15 1 12 -4 18 -12 17
-8 -2 -14 2 -14 7 -1 6 3 10 9 10 5 0 16 9 24 20 11 15 12 23 3 35 -10 13 -10
13 5 2 16 -13 16 -16 2 -37 -11 -18 -12 -25 -3 -31 7 -4 9 -3 6 3 -9 14 22 55
35 47 6 -4 8 -2 4 4 -3 6 -2 13 4 17 6 4 8 11 4 16 -3 6 3 13 15 16 12 3 21
10 21 15 0 5 -4 6 -10 3 -5 -3 -10 -1 -10 4 0 6 5 11 10 11 6 0 10 5 10 11 0
5 -4 8 -9 4 -5 -3 -13 0 -17 6 -4 7 -3 9 2 6 6 -3 16 -1 24 4 13 8 13 10 0 19
-12 9 -12 10 5 8 12 -2 19 2 17 10 -1 8 2 11 8 7 5 -3 11 -1 11 4 1 6 2 15 3
20 0 5 5 13 10 18 5 4 6 3 3 -3 -4 -7 0 -14 8 -17 9 -4 12 -1 8 9 -3 10 0 12
10 9 14 -6 28 14 36 51 0 4 8 1 16 -6 10 -9 15 -9 15 -1 0 6 -5 11 -11 11 -5
0 -8 4 -4 9 3 5 0 13 -6 17 -7 4 -9 3 -5 -4 3 -6 1 -14 -5 -17 -21 -14 -21 5
1 32 13 15 20 20 17 11 -3 -9 0 -19 8 -22 10 -3 12 0 8 11 -5 12 -3 14 8 8 11
-6 12 -5 2 6 -7 7 -13 18 -13 23 0 6 4 4 10 -4 5 -8 12 -11 16 -7 4 3 1 13 -6
22 -12 15 -11 16 10 19 6 0 10 6 11 11 0 6 7 17 15 26 11 12 11 18 1 29 -10
12 -9 12 6 1 9 -7 18 -11 18 -7 1 3 2 10 3 15 0 5 4 13 8 17 4 3 5 -3 3 -15
-4 -20 -2 -20 26 6 16 15 29 32 29 38 0 5 -7 2 -14 -7 -16 -22 -23 -23 -23 -4
0 8 5 14 11 13 6 -1 10 4 8 11 -2 10 2 10 18 2 14 -8 20 -8 20 0 0 6 5 8 10 5
6 -4 10 -3 9 2 -1 4 -1 14 0 22 1 11 4 11 19 0 15 -12 16 -12 5 2 -15 19 -8
30 15 22 13 -4 14 -2 4 4 -10 8 -9 13 4 24 9 8 20 14 23 14 3 0 4 6 3 14 -2 7
1 10 7 7 5 -4 12 -2 15 3 4 5 1 13 -5 17 -7 4 -9 3 -6 -3 3 -5 0 -10 -7 -10
-7 0 -13 6 -13 13 0 12 27 11 46 0 5 -4 7 3 4 13 -3 13 -10 18 -21 14 -12 -5
-11 -1 4 14 14 15 22 17 33 9 12 -9 13 -8 8 6 -6 17 15 43 26 31 4 -3 7 -1 7
6 0 7 3 10 8 7 4 -2 16 2 27 10 10 8 14 14 9 14 -6 0 -14 -4 -19 -9 -6 -6 -15
-4 -24 6 -11 12 -10 14 5 11 12 -2 19 3 18 13 -1 9 4 16 11 16 7 0 12 -5 11
-11 -2 -6 -1 -8 1 -3 3 4 9 4 15 1 5 -3 4 3 -3 14 -7 12 -17 18 -23 15 -5 -3
-6 -1 -3 5 4 5 16 8 27 5 17 -4 19 -2 13 13 -6 17 -5 18 12 4 17 -14 18 -14 7
7 -11 20 -10 21 16 17 26 -4 26 -3 6 9 -19 10 -20 14 -8 25 8 7 13 16 10 20
-2 4 2 13 10 20 10 10 14 10 14 1 0 -7 3 -10 6 -6 3 3 3 11 -1 17 -5 8 -11 8
-21 -1 -12 -10 -17 -9 -27 0 -9 10 -8 11 8 5 18 -7 19 -6 5 12 -14 17 -13 18
1 7 18 -15 30 -8 22 13 -3 9 1 12 15 9 16 -3 19 2 17 26 -2 24 1 29 14 25 15
-6 15 -5 0 6 -9 7 -15 21 -13 31 1 9 -1 15 -6 12 -4 -2 -6 -18 -5 -35 1 -17
-1 -33 -6 -36 -5 -3 -7 -10 -4 -15 3 -5 -1 -6 -10 -2 -12 4 -13 8 -5 13 6 4
11 10 11 14 -1 3 0 8 0 11 2 7 6 41 8 61 0 8 5 13 10 9 19 -11 20 13 1 30 -19
17 -19 17 -15 -4 2 -11 -1 -21 -7 -21 -5 0 -8 7 -5 15 4 8 2 17 -4 21 -6 3 -8
12 -5 19 2 7 2 16 -2 19 -11 12 -14 58 -2 51 5 -3 10 -1 10 4 0 15 -13 14 -29
-1 -10 -11 -12 -10 -9 2 2 8 -2 14 -9 13 -6 -1 -10 3 -9 10 1 7 6 12 11 12 6
0 9 -4 7 -8 -1 -5 3 -5 9 -1 8 4 9 3 5 -4 -4 -8 -2 -10 7 -6 12 4 9 11 -10 31
-18 17 -28 21 -33 13 -5 -9 -9 -9 -14 -1 -4 6 -5 15 -2 20 8 12 -29 43 -39 34
-4 -5 -5 -2 -1 5 5 7 1 12 -11 13 -16 0 -16 1 2 9 11 5 16 9 11 9 -5 1 -3 7 3
14 8 10 7 14 -4 14 -8 0 -12 -4 -9 -8 2 -4 -1 -11 -7 -15 -7 -4 -9 -3 -6 3 3
5 -3 22 -14 39 -10 16 -19 25 -19 19 -1 -5 -8 3 -17 19 -15 29 -16 29 -30 10
-13 -18 -14 -17 -8 11 5 23 4 26 -4 15 -9 -13 -11 -13 -11 3 0 9 -5 17 -11 17
-5 0 -8 4 -5 8 2 4 -4 9 -15 9 -14 1 -18 -2 -12 -11 4 -6 1 -4 -8 6 -9 9 -20
14 -24 10 -5 -4 -5 -2 -1 5 4 7 13 10 21 6 8 -3 15 0 15 7 0 6 -4 8 -10 5 -5
-3 -10 -1 -10 6 0 10 -3 10 -12 1 -7 -7 -17 -12 -22 -12 -6 0 -4 5 4 10 10 6
11 10 3 10 -7 0 -13 5 -13 11 0 5 4 8 8 5 5 -3 9 1 9 8 0 8 -12 12 -34 11 -19
-1 -36 2 -39 7 -3 5 -11 5 -17 2 -7 -4 -9 -4 -5 1 4 4 0 14 -10 21 -9 7 -12
14 -7 14 6 0 11 9 12 21 2 17 -1 18 -13 9 -17 -15 -19 1 -1 20 6 8 2 6 -10 -3
-14 -12 -23 -15 -28 -7 -3 5 -11 8 -16 5 -5 -4 -9 -1 -9 4 0 15 27 14 32 -1 3
-7 7 -2 11 11 3 13 3 20 0 17 -3 -3 -17 4 -32 15 -15 12 -27 16 -29 10 -2 -6
-14 3 -26 21 -25 37 -24 53 3 39 14 -8 17 -6 16 9 -1 11 -5 23 -9 27 -4 5 -6
2 -4 -6 2 -10 -6 -15 -22 -15 -17 -1 -24 -6 -22 -16 2 -8 0 -11 -5 -7 -4 5 -9
25 -9 45 -2 51 -3 52 -15 52 -8 0 -8 -4 -1 -13 7 -8 8 -18 1 -27 -9 -13 -10
-13 -8 0 1 8 -3 27 -11 42 -10 21 -10 31 -1 42 15 18 -4 33 -23 17 -10 -9 -19
-6 -37 9 l-24 21 28 -17 c23 -14 27 -14 27 -1 0 8 -9 17 -21 20 -12 3 -18 10
-15 15 3 6 1 13 -4 15 -6 3 -5 4 2 3 7 -2 12 -9 10 -16 -2 -11 0 -11 11 -1 10
8 17 8 20 1 3 -6 4 -5 3 2 -2 7 -9 12 -15 11 -15 -4 -14 14 2 21 6 3 3 4 -9 1
-14 -4 -21 0 -21 10 0 9 6 14 13 11 8 -3 11 0 7 10 -6 17 -15 18 -31 4 -6 -6
-10 -7 -7 -4 3 4 -1 14 -8 23 -11 14 -10 14 6 2 16 -13 17 -11 15 15 -2 37 9
57 29 49 14 -5 14 -3 2 11 -11 14 -11 18 2 28 9 6 16 16 15 21 -1 6 13 10 29
11 40 0 58 12 50 32 -3 9 -3 13 1 9 4 -4 14 -1 22 6 13 9 14 9 8 0 -4 -7 -3
-13 3 -13 6 0 8 -7 5 -15 -9 -23 4 -18 17 6 9 17 8 20 -3 14 -7 -5 -10 -5 -6
0 4 4 2 15 -5 23 -8 11 -3 10 17 -3 27 -18 29 -18 41 -2 14 19 30 24 19 6 -4
-7 -1 -10 7 -7 8 3 13 11 11 17 -1 7 2 10 8 6 6 -3 8 -11 5 -16 -4 -5 -1 -9 4
-9 6 0 11 5 11 10 0 6 4 10 9 10 6 0 8 -9 6 -20 -2 -12 0 -18 6 -15 5 4 7 10
4 15 -3 5 -1 11 5 15 5 3 10 0 10 -7 0 -10 3 -9 11 2 8 11 12 12 16 3 2 -7 9
-13 15 -13 5 0 -1 15 -13 33 -12 17 -16 26 -9 20 15 -14 64 -18 56 -5 -3 5 2
9 10 9 8 0 13 -6 10 -14 -3 -7 -1 -13 4 -13 6 0 10 8 10 18 0 15 8 19 35 19
19 0 32 -4 29 -9 -3 -4 7 -3 22 2 23 9 25 8 20 -7 -6 -14 -4 -15 4 -7 9 9 9
18 -1 35 -11 21 -11 23 4 11 13 -11 17 -10 26 5 6 10 11 13 11 6 0 -13 17 -12
40 2 13 8 13 7 1 -8 -9 -12 -10 -17 -2 -17 7 0 10 -4 7 -8 -3 -5 1 -9 9 -9 10
0 12 4 5 12 -8 9 -6 14 6 19 21 8 24 8 24 -5 0 -5 -4 -7 -10 -4 -6 3 -7 -1 -3
-10 5 -13 7 -14 14 -3 7 11 11 10 20 -2 8 -12 9 -10 4 8 -4 13 -2 22 4 22 6 0
11 -4 11 -10 0 -5 5 -10 11 -10 5 0 7 4 4 10 -3 6 1 7 10 4 12 -5 13 -9 4 -20
-18 -22 -1 -16 24 7 12 12 17 19 12 16 -6 -3 -17 -1 -25 4 -12 8 -11 9 5 7 13
-2 19 2 17 12 -2 8 0 11 4 7 13 -12 14 -40 2 -54 -7 -9 -7 -13 0 -13 5 0 12 6
15 14 5 13 46 14 66 1 7 -3 8 0 5 9 -3 9 -10 13 -15 10 -5 -3 -6 2 -3 10 3 9
12 12 21 9 10 -4 14 -2 9 5 -3 6 -2 13 3 16 10 7 9 -13 -2 -31 -4 -6 -3 -14 3
-18 10 -6 14 1 11 19 -1 5 6 6 15 2 14 -5 15 -4 5 8 -11 13 -9 14 16 7 22 -6
30 -5 30 4 0 7 -8 12 -18 10 -10 -2 -23 4 -30 13 -11 14 -11 15 0 5 10 -9 18
-6 35 11 11 12 15 14 7 4 -8 -10 -12 -20 -10 -22 6 -7 54 39 57 55 2 8 8 19
14 24 8 7 9 6 4 -2 -11 -20 -16 -54 -6 -48 4 3 10 1 12 -4 1 -5 10 -2 18 7 13
14 12 15 -3 9 -19 -7 -21 0 -8 22 11 18 3 43 -12 34 -6 -3 -7 -1 -3 5 4 6 14
8 23 5 10 -4 14 -2 9 5 -3 6 -3 13 2 16 4 2 8 -6 8 -19 0 -14 -4 -21 -10 -17
-6 3 -5 -1 2 -10 9 -11 9 -18 2 -21 -6 -3 -5 -4 2 -2 7 1 12 8 10 15 -2 8 4
10 15 6 17 -6 17 -5 0 8 -16 12 -16 14 -1 27 10 8 18 12 20 9 1 -3 6 -1 11 4
5 5 3 6 -4 2 -7 -4 -13 -3 -13 3 0 5 -3 18 -7 28 -6 16 -5 17 12 3 18 -15 18
-14 1 11 -25 39 -28 69 -8 70 14 0 14 2 2 6 -8 3 -18 11 -22 17 -4 6 -6 -2 -5
-18 1 -19 -3 -31 -13 -33 -9 -3 -11 -1 -5 4 6 4 10 14 9 21 -1 6 -2 17 -3 23
-1 8 -6 8 -16 -1 -13 -11 -14 -10 -9 4 4 10 13 15 20 12 16 -6 19 10 4 19 -5
3 -7 12 -4 19 3 7 -2 16 -11 20 -9 3 -14 9 -11 14 2 4 0 14 -6 22 -8 12 -9 12
-4 -2 3 -11 0 -18 -7 -18 -7 0 -1 -9 13 -20 14 -11 19 -20 12 -20 -8 0 -10 -5
-6 -12 4 -8 3 -10 -2 -5 -5 5 -9 12 -9 15 0 15 -17 32 -26 26 -5 -3 -8 0 -7 8
2 8 -7 13 -24 12 -15 0 -24 4 -21 9 3 4 11 6 19 3 8 -3 17 1 20 9 4 8 10 13
14 10 5 -3 12 0 16 6 4 7 3 9 -4 5 -5 -3 -13 0 -15 6 -4 10 -6 10 -6 1 -1 -7
-8 -10 -18 -7 -15 5 -16 4 -3 -5 8 -6 11 -11 6 -11 -5 0 -17 7 -27 16 -9 8
-26 16 -37 17 -11 0 -18 5 -16 9 3 4 0 8 -6 8 -6 0 -8 6 -4 13 5 9 4 9 -6 0
-7 -6 -20 -9 -29 -5 -14 5 -14 3 -3 -10 10 -13 10 -18 1 -24 -8 -4 -9 -3 -5 5
4 6 0 14 -9 17 -12 5 -13 10 -5 20 7 7 18 10 26 7 8 -3 14 -1 14 5 0 12 -17
10 -45 -4 -11 -6 -33 -9 -50 -7 -16 2 -40 4 -52 4 -13 1 -21 4 -18 8 2 4 -2 8
-10 8 -12 0 -12 -4 2 -20 11 -12 12 -17 4 -12 -9 5 -19 2 -27 -10 -12 -16 -13
-16 -11 3 0 11 6 18 12 14 5 -3 4 2 -4 11 -15 18 -26 23 -16 7 4 -6 -5 -10
-19 -10 -14 0 -26 -6 -26 -12 -1 -7 -7 -2 -15 12 -8 14 -14 19 -15 12z m-26
-42 c-6 -6 -10 -2 -11 12 -2 16 1 18 10 9 7 -7 8 -14 1 -21z m33 23 c-4 -3 -1
-13 6 -22 11 -14 10 -14 -5 -2 -16 12 -16 31 -1 31 4 0 3 -3 0 -7z m-177 -31
c0 -15 -2 -15 -10 -2 -13 20 -13 33 0 25 6 -3 10 -14 10 -23z m87 8 c-1 -12
-5 -16 -10 -11 -5 5 -6 14 -3 20 11 16 15 13 13 -9z m263 0 c0 -5 -2 -10 -4
-10 -3 0 -8 5 -11 10 -3 6 -1 10 4 10 6 0 11 -4 11 -10z m40 6 c0 -3 -4 -8
-10 -11 -5 -3 -10 -1 -10 4 0 6 5 11 10 11 6 0 10 -2 10 -4z m77 -18 c-3 -8
-6 -5 -6 6 -1 11 2 17 5 13 3 -3 4 -12 1 -19z m-636 -45 c-6 -10 -11 -13 -11
-6 0 7 -7 10 -15 7 -8 -4 -15 -1 -15 4 0 6 9 9 20 7 11 -2 20 1 20 7 0 6 3 9
6 5 3 -3 1 -14 -5 -24z m-106 -31 c-3 -3 -11 0 -18 7 -9 10 -8 11 6 5 10 -3
15 -9 12 -12z m-225 -86 c0 -2 -7 -7 -16 -10 -8 -3 -12 -2 -9 4 6 10 25 14 25
6z m-90 -30 c0 -2 -8 -10 -17 -17 -16 -13 -17 -12 -4 4 13 16 21 21 21 13z
m1270 -39 c0 -7 -4 -6 -10 3 -6 10 -10 11 -10 3 0 -7 -8 -13 -17 -13 -15 0
-14 2 2 14 21 15 35 12 35 -7z m0 -42 c0 -8 -5 -17 -10 -20 -6 -4 -9 -1 -8 7
2 8 -5 12 -17 11 -19 -1 -20 -1 -1 12 21 16 36 11 36 -10z m-1500 -116 c-9
-15 -8 -24 1 -37 12 -16 12 -16 -5 -1 -15 14 -16 21 -7 38 7 11 14 21 17 21 2
0 0 -9 -6 -21z m1235 -59 c-3 -5 -1 -10 6 -10 7 0 10 -3 6 -6 -9 -9 -28 6 -22
17 4 5 8 9 11 9 3 0 2 -4 -1 -10z m-1265 -20 c0 -5 -4 -10 -10 -10 -5 0 -10 5
-10 10 0 6 5 10 10 10 6 0 10 -4 10 -10z m970 -5 c9 -10 9 -15 1 -15 -6 0 -11
5 -11 11 0 5 -4 7 -10 4 -5 -3 -10 -1 -10 4 0 16 16 13 30 -4z m-190 -55 c0
-4 -7 -7 -15 -6 -23 3 -26 12 -5 13 11 1 20 -2 20 -7z m-225 -70 c-3 -5 -13
-6 -21 -3 -12 4 -13 8 -3 14 15 9 32 2 24 -11z m-575 -46 c0 -8 -19 -13 -24
-6 -3 5 1 9 9 9 8 0 15 -2 15 -3z m-40 -20 c0 -14 -3 -14 -15 -4 -8 7 -15 14
-15 16 0 2 7 4 15 4 8 0 15 -7 15 -16z m18 -28 c-14 -10 -15 -15 -5 -25 9 -10
8 -11 -5 -6 -10 4 -18 11 -18 16 0 4 8 13 18 18 24 15 30 13 10 -3z m552 -200
c0 -2 -7 -9 -15 -16 -13 -11 -14 -10 -9 4 5 14 24 23 24 12z m144 -224 c3 -5
-1 -9 -9 -9 -8 0 -12 4 -9 9 3 4 7 8 9 8 2 0 6 -4 9 -8z m-548 -74 c4 -7 3 -8
-5 -4 -6 4 -14 0 -17 -8 -3 -9 -10 -13 -16 -10 -5 3 -1 12 9 20 22 17 20 16
29 2z m34 -34 c0 -8 -19 -13 -24 -6 -3 5 1 9 9 9 8 0 15 -2 15 -3z m653 -41
c-3 -7 -8 -13 -12 -13 -4 0 -8 6 -8 13 0 8 6 14 13 14 7 0 10 -6 7 -14z m88
-106 c-10 -9 -11 -8 -5 6 3 10 9 15 12 12 3 -3 0 -11 -7 -18z m73 -53 c3 -8 2
-12 -4 -9 -6 3 -10 10 -10 16 0 14 7 11 14 -7z m-631 -79 c-3 -9 -8 -14 -10
-11 -3 3 -2 9 2 15 9 16 15 13 8 -4z m181 -148 c7 -6 6 -7 -4 -4 -8 2 -16 12
-17 23 -2 13 -1 15 4 4 3 -8 11 -19 17 -23z m90 -103 c3 -8 9 -13 14 -10 4 2
14 0 22 -5 12 -7 11 -8 -5 -6 -27 3 -75 37 -53 37 9 0 19 -7 22 -16z m543 -49
c0 -8 -4 -12 -9 -9 -5 3 -6 10 -3 15 9 13 12 11 12 -6z m-529 -59 c-7 -8 -17
-12 -22 -9 -4 3 -2 9 5 14 22 13 31 11 17 -5z m-75 -93 c-5 -11 -8 -12 -13 -2
-5 7 -6 19 -3 26 5 11 8 12 13 2 5 -7 6 -19 3 -26z m-268 -313 c-3 -5 -14 -10
-23 -9 -14 0 -13 2 3 9 27 11 27 11 20 0z m639 -6 c3 -8 2 -13 -3 -9 -5 3 -27
-15 -48 -39 -30 -34 -43 -42 -54 -34 -11 8 -11 9 4 4 15 -5 22 5 18 27 -1 5 2
6 6 4 11 -7 33 19 25 29 -4 4 -1 4 6 0 9 -5 15 -1 19 13 6 25 18 27 27 5z
m-654 -29 c0 -2 -9 -3 -19 -2 -11 0 -18 5 -15 9 4 6 34 0 34 -7z m-30 -26 c0
-6 -5 -7 -12 -3 -8 5 -9 2 -5 -10 6 -14 3 -15 -14 -6 -11 6 -18 14 -15 18 7
12 46 12 46 1z m-80 -99 c0 -5 -5 -10 -11 -10 -5 0 -7 5 -4 10 3 6 8 10 11 10
2 0 4 -4 4 -10z m459 -226 c-12 -15 -42 -7 -32 9 5 8 8 7 11 -1 2 -7 8 -9 13
-6 6 3 5 12 -3 22 -12 15 -11 16 5 3 13 -10 14 -17 6 -27z m-669 -98 c0 -10
-30 0 -34 11 -4 11 -1 11 14 3 11 -6 20 -12 20 -14z m533 -69 c-9 -15 -21 4
-15 25 5 21 6 21 12 2 4 -10 5 -22 3 -27z m-583 19 c0 -3 -4 -8 -10 -11 -5 -3
-10 -1 -10 4 0 6 5 11 10 11 6 0 10 -2 10 -4z m554 -38 c-5 -8 -2 -9 11 -4 15
5 16 4 5 -9 -10 -12 -15 -13 -21 -3 -7 12 -3 28 7 28 3 0 2 -5 -2 -12z m-745
-164 c4 3 8 -2 8 -10 0 -9 -4 -11 -10 -5 -5 5 -17 7 -26 3 -14 -5 -14 -4 -1
12 8 11 16 14 18 7 2 -6 7 -9 11 -7z m561 -109 c-7 -8 -16 -13 -20 -10 -5 3
-11 0 -13 -5 -3 -6 -4 -5 -3 2 2 7 8 13 14 13 5 0 14 3 18 8 13 13 17 7 4 -8z
m-44 -83 c-4 -3 -11 0 -16 8 -6 9 -10 10 -10 3 0 -6 -9 -11 -19 -10 -11 0 -17
5 -15 9 3 5 10 6 15 3 5 -4 12 1 15 9 5 14 8 14 21 0 9 -8 12 -18 9 -22z
m-851 -61 c3 -5 2 -12 -3 -15 -5 -3 -9 1 -9 9 0 17 3 19 12 6z m-171 -69 c3
-5 -1 -9 -9 -9 -8 0 -15 4 -15 9 0 4 4 8 9 8 6 0 12 -4 15 -8z m-80 -27 c-4
-8 -10 -12 -15 -9 -5 3 -9 0 -9 -5 0 -6 -6 -11 -12 -11 -7 1 -2 10 11 20 28
24 32 25 25 5z m776 -111 c0 -8 -19 -13 -24 -6 -3 5 1 9 9 9 8 0 15 -2 15 -3z
m-50 -38 c0 -2 -8 -10 -17 -17 -16 -13 -17 -12 -4 4 13 16 21 21 21 13z m-50
-67 c-7 -11 -14 -18 -17 -15 -3 3 0 12 7 21 18 21 23 19 10 -6z m-140 -59 c0
-5 -5 -10 -11 -10 -5 0 -7 5 -4 10 3 6 8 10 11 10 2 0 4 -4 4 -10z m-756 -25
c-10 -8 -23 -14 -29 -14 -5 0 -1 6 9 14 11 8 24 15 30 15 5 0 1 -7 -10 -15z
m716 -18 c0 -6 -3 -7 -7 -4 -3 4 -12 2 -20 -4 -9 -9 -13 -8 -13 0 0 6 5 11 11
11 5 0 7 4 4 10 -3 6 1 7 9 4 9 -3 16 -11 16 -17z m-680 -17 c0 -5 -2 -10 -4
-10 -3 0 -8 5 -11 10 -3 6 -1 10 4 10 6 0 11 -4 11 -10z m505 -51 c11 -16 1
-19 -13 -3 -7 8 -8 14 -3 14 5 0 13 -5 16 -11z m-450 -18 c3 -5 2 -12 -3 -15
-5 -3 -9 1 -9 9 0 17 3 19 12 6z m365 -5 c0 -3 -4 -8 -10 -11 -5 -3 -10 -1
-10 4 0 6 5 11 10 11 6 0 10 -2 10 -4z m-10 -39 c0 -2 -8 -3 -18 -3 -10 0 -19
6 -19 13 0 8 6 9 19 2 10 -5 18 -11 18 -12z"/>
<path d="M4195 4760 c3 -5 8 -10 11 -10 2 0 4 5 4 10 0 6 -5 10 -11 10 -5 0
-7 -4 -4 -10z"/>
<path d="M4344 4728 c-4 -7 -3 -10 1 -5 5 4 16 0 25 -8 14 -13 17 -13 17 0 0
8 -4 12 -9 9 -4 -3 -8 0 -8 5 0 15 -17 14 -26 -1z"/>
<path d="M3535 4680 c-2 -3 7 -7 21 -8 13 -1 24 2 24 6 0 9 -40 11 -45 2z"/>
<path d="M4425 4660 c3 -5 8 -10 11 -10 2 0 4 5 4 10 0 6 -5 10 -11 10 -5 0
-7 -4 -4 -10z"/>
<path d="M4495 4640 c3 -5 8 -10 11 -10 2 0 4 5 4 10 0 6 -5 10 -11 10 -5 0
-7 -4 -4 -10z"/>
<path d="M4501 4613 c-1 -16 29 -44 40 -38 13 9 11 15 -3 13 -7 -2 -12 3 -10
10 1 8 -2 11 -7 8 -5 -4 -12 0 -14 6 -4 9 -6 9 -6 1z"/>
<path d="M3240 4561 c0 -6 4 -13 10 -16 6 -3 7 1 4 9 -7 18 -14 21 -14 7z"/>
<path d="M4531 4514 c0 -11 3 -14 6 -6 3 7 2 16 -1 19 -3 4 -6 -2 -5 -13z"/>
<path d="M3101 4474 c0 -11 3 -14 6 -6 3 7 2 16 -1 19 -3 4 -6 -2 -5 -13z"/>
<path d="M4546 4478 c3 -5 10 -6 15 -3 13 9 11 12 -6 12 -8 0 -12 -4 -9 -9z"/>
<path d="M3030 4370 c0 -5 5 -10 11 -10 5 0 7 5 4 10 -3 6 -8 10 -11 10 -2 0
-4 -4 -4 -10z"/>
<path d="M4411 4307 c-6 -8 -6 -18 -1 -27 5 -8 6 -18 3 -24 -3 -5 -1 -6 5 -2
9 5 9 13 2 26 -7 13 -7 21 0 25 5 3 10 1 10 -4 0 -6 5 -11 10 -11 15 0 12 17
-4 23 -8 3 -19 0 -25 -6z"/>
<path d="M4005 4229 c-3 -3 2 -12 11 -19 12 -10 17 -11 27 -1 9 10 8 11 -8 5
-17 -7 -18 -5 -8 7 10 13 10 16 -3 16 -8 0 -17 -4 -19 -8z"/>
<path d="M3883 4194 c0 -10 4 -11 10 -5 7 7 16 7 26 -1 13 -10 14 -10 4 2 -17
19 -40 21 -40 4z"/>
<path d="M3831 4173 c-1 -17 16 -25 25 -12 4 7 3 9 -4 5 -5 -3 -13 0 -15 6 -4
9 -6 10 -6 1z"/>
<path d="M3648 4133 c-10 -2 -18 -9 -18 -14 0 -6 8 -5 20 1 11 6 20 13 20 15
0 3 -1 4 -2 4 -2 -1 -11 -3 -20 -6z"/>
<path d="M3696 4127 c3 -10 9 -15 12 -12 3 3 0 11 -7 18 -10 9 -11 8 -5 -6z"/>
<path d="M3486 4078 c3 -4 9 -8 15 -8 5 0 9 4 9 8 0 5 -7 9 -15 9 -8 0 -12 -4
-9 -9z"/>
<path d="M3466 4048 c3 -5 10 -6 15 -3 13 9 11 12 -6 12 -8 0 -12 -4 -9 -9z"/>
<path d="M3434 3998 c-4 -6 -3 -8 4 -4 5 3 13 0 15 -6 3 -8 6 -6 6 5 1 19 -14
23 -25 5z"/>
<path d="M3549 3726 c0 -1 -2 -9 -4 -19 -3 -18 -3 -18 16 -1 10 9 19 18 19 19
0 2 -29 3 -31 1z"/>
<path d="M3585 3650 c11 -14 20 -26 21 -28 1 -2 5 5 8 15 4 9 4 14 0 10 -4 -4
-17 1 -28 10 l-21 18 20 -25z"/>
<path d="M3626 3633 c-4 -9 -4 -14 0 -10 4 4 14 1 23 -6 14 -11 15 -10 1 8 -8
11 -15 21 -16 23 -1 2 -5 -5 -8 -15z"/>
<path d="M3724 3522 c4 -7 2 -12 -5 -12 -8 0 -5 -7 6 -20 17 -19 41 -18 29 1
-3 5 -10 6 -16 3 -7 -5 -9 -1 -5 9 3 9 1 19 -5 23 -7 4 -8 3 -4 -4z"/>
<path d="M3053 3453 c0 -9 4 -10 14 -2 7 6 13 12 13 14 0 1 -6 2 -13 2 -8 0
-14 -6 -14 -14z"/>
<path d="M3113 3395 c0 -8 6 -16 14 -19 11 -4 11 -1 3 14 -13 24 -17 25 -17 5z"/>
<path d="M3153 3375 c0 -8 4 -12 9 -9 5 3 6 10 3 15 -9 13 -12 11 -12 -6z"/>
<path d="M3895 3380 c3 -5 8 -10 11 -10 2 0 4 5 4 10 0 6 -5 10 -11 10 -5 0
-7 -4 -4 -10z"/>
<path d="M3997 3279 c7 -7 15 -10 18 -7 3 3 -2 9 -12 12 -14 6 -15 5 -6 -5z"/>
<path d="M4027 3226 c-3 -8 5 -24 18 -36 14 -13 22 -27 19 -31 -3 -5 2 -6 12
-2 14 5 15 7 1 15 -10 5 -14 16 -11 26 4 11 3 13 -3 6 -6 -9 -11 -8 -20 1 -9
10 -10 14 -1 17 9 3 9 6 1 11 -6 4 -13 1 -16 -7z"/>
<path d="M4110 3141 c0 -6 4 -13 10 -16 6 -3 7 1 4 9 -7 18 -14 21 -14 7z"/>
<path d="M3430 3070 c0 -5 5 -10 11 -10 5 0 7 5 4 10 -3 6 -8 10 -11 10 -2 0
-4 -4 -4 -10z"/>
<path d="M4149 3058 c15 -20 2 -25 -16 -7 -9 9 -11 7 -8 -7 1 -11 9 -18 16
-16 26 6 30 19 12 33 -16 13 -17 12 -4 -3z"/>
<path d="M3390 3056 c0 -2 8 -10 18 -17 15 -13 16 -12 3 4 -13 16 -21 21 -21
13z"/>
<path d="M4148 3013 c-10 -2 -18 -9 -18 -14 0 -6 8 -5 20 1 11 6 20 13 20 15
0 3 -1 4 -2 4 -2 -1 -11 -3 -20 -6z"/>
<path d="M3510 2980 c0 -5 5 -10 11 -10 5 0 7 5 4 10 -3 6 -8 10 -11 10 -2 0
-4 -4 -4 -10z"/>
<path d="M3555 2920 c3 -5 8 -10 11 -10 2 0 4 5 4 10 0 6 -5 10 -11 10 -5 0
-7 -4 -4 -10z"/>
<path d="M3536 2851 c-3 -5 2 -15 12 -22 15 -12 16 -12 5 2 -7 9 -10 19 -6 22
3 4 4 7 0 7 -3 0 -8 -4 -11 -9z"/>
<path d="M4150 2801 c0 -6 4 -12 8 -15 5 -3 9 1 9 9 0 8 -4 15 -9 15 -4 0 -8
-4 -8 -9z"/>
<path d="M4120 2719 c0 -5 5 -7 10 -4 6 3 10 8 10 11 0 2 -4 4 -10 4 -5 0 -10
-5 -10 -11z"/>
<path d="M3345 2640 c-3 -5 0 -7 8 -4 8 3 18 1 22 -5 3 -6 2 -11 -3 -11 -6 0
-13 -8 -16 -17 -6 -15 -4 -15 14 2 15 14 17 21 9 32 -14 15 -25 17 -34 3z"/>
<path d="M3285 2560 c-3 -5 -1 -10 4 -10 6 0 11 5 11 10 0 6 -2 10 -4 10 -3 0
-8 -4 -11 -10z"/>
<path d="M3974 2538 c-5 -7 44 -3 52 5 3 3 -7 4 -21 3 -15 0 -29 -4 -31 -8z"/>
<path d="M3780 2275 c-7 -9 -11 -17 -9 -20 3 -2 10 5 17 15 14 24 10 26 -8 5z"/>
<path d="M3707 2232 c-12 -13 -13 -21 -6 -32 9 -12 10 -12 5 3 -5 15 4 22 26
18 4 0 5 6 2 14 -8 19 -8 19 -27 -3z"/>
<path d="M3666 2178 c3 -4 9 -8 15 -8 5 0 9 4 9 8 0 5 -7 9 -15 9 -8 0 -12 -4
-9 -9z"/>
<path d="M2918 2053 c6 -2 9 -9 6 -14 -3 -6 -12 -5 -22 3 -15 12 -16 11 -4 -4
17 -21 8 -39 -16 -32 -15 5 -14 4 1 -6 10 -7 20 -10 21 -8 35 53 38 69 12 67
-6 0 -5 -3 2 -6z"/>
<path d="M3523 1977 c-13 -18 -23 -37 -23 -43 0 -5 8 3 18 19 10 15 21 25 23
23 3 -3 5 4 6 14 2 26 2 26 -24 -13z"/>
<path d="M3341 1736 c-7 -8 -8 -17 -3 -20 6 -3 15 1 21 8 7 8 8 17 3 20 -6 3
-15 -1 -21 -8z"/>
<path d="M3296 1685 c-15 -11 -15 -14 -1 -25 13 -11 14 -10 9 5 -5 12 -4 16 3
12 6 -4 16 -1 22 6 14 18 -10 19 -33 2z"/>
<path d="M2489 1573 c-13 -15 -12 -15 9 -4 23 12 28 21 13 21 -5 0 -15 -7 -22
-17z"/>
<path d="M2345 1520 c-3 -5 -2 -10 4 -10 5 0 13 5 16 10 3 6 2 10 -4 10 -5 0
-13 -4 -16 -10z"/>
<path d="M2135 1420 c-3 -5 -1 -10 4 -10 6 0 11 5 11 10 0 6 -2 10 -4 10 -3 0
-8 -4 -11 -10z"/>
<path d="M2040 1376 c7 -7 13 -7 20 0 6 6 3 10 -10 10 -13 0 -16 -4 -10 -10z"/>
<path d="M2956 1301 c-3 -5 2 -15 12 -22 15 -12 16 -12 5 2 -7 9 -10 19 -6 22
3 4 4 7 0 7 -3 0 -8 -4 -11 -9z"/>
<path d="M1929 1283 c-1 -4 -1 -12 0 -16 1 -5 -9 -6 -21 -2 -21 5 -21 5 -4 -6
14 -9 21 -8 33 4 10 10 11 17 4 21 -6 4 -12 4 -12 -1z"/>
<path d="M2875 1220 c-10 -11 -13 -20 -7 -20 6 0 16 9 22 20 6 11 9 20 7 20
-2 0 -12 -9 -22 -20z"/>
<path d="M2896 1193 c-6 -14 -5 -15 5 -6 7 7 10 15 7 18 -3 3 -9 -2 -12 -12z"/>
<path d="M2791 1127 c-13 -21 -12 -21 5 -5 10 10 16 20 13 22 -3 3 -11 -5 -18
-17z"/>
<path d="M1780 1046 c0 -2 8 -10 18 -17 15 -13 16 -12 3 4 -13 16 -21 21 -21
13z"/>
<path d="M1850 1010 c-11 -7 -11 -10 -2 -10 8 0 10 -5 6 -12 -5 -9 -3 -9 9 1
9 7 14 17 11 22 -6 11 -6 11 -24 -1z"/>
<path d="M1903 933 c-7 -3 -13 -9 -13 -15 0 -7 5 -6 14 1 10 9 17 7 27 -6 12
-15 12 -16 -3 -10 -10 3 -18 2 -18 -3 0 -10 20 -14 50 -11 11 1 10 -2 -4 -13
-18 -14 -18 -15 2 -13 11 0 18 5 15 11 -4 5 1 7 11 3 10 -4 20 -7 22 -7 2 0 4
-5 4 -11 0 -5 -4 -7 -10 -4 -5 3 -10 2 -10 -3 0 -6 6 -12 14 -15 21 -8 14 25
-11 50 -12 12 -24 19 -27 15 -3 -3 -16 4 -29 15 -12 11 -28 18 -34 16z"/>
<path d="M2335 920 c-3 -5 -1 -10 4 -10 6 0 11 5 11 10 0 6 -2 10 -4 10 -3 0
-8 -4 -11 -10z"/>
<path d="M2076 849 c3 -5 10 -7 15 -4 5 4 9 2 9 -3 0 -5 11 -9 25 -9 14 0 25
4 25 9 0 6 6 6 14 -1 11 -9 16 -9 22 0 4 8 3 9 -4 5 -7 -4 -12 -2 -12 3 0 11
-35 10 -46 -2 -4 -3 -12 -3 -18 0 -17 11 -37 12 -30 2z"/>
<path d="M2075 821 c-3 -5 -2 -12 3 -15 5 -3 9 1 9 9 0 17 -3 19 -12 6z"/>
</g>
</svg>
